<svg width="222" height="116" viewBox="0 0 222 116" fill="none" xmlns="http://www.w3.org/2000/svg"><path d="M56.504 21H36.371a2 2 0 00-1.866 1.28L21.658 55.59a2 2 0 00-.13.85l2.85 43.69a2 2 0 001.996 1.87h90.672a2 2 0 001.902-1.383l21.204-65.429a2 2 0 00-1.903-2.617H57.558a2 2 0 01-1.833-2.801l2.61-5.968A2 2 0 0056.505 21z" fill="#FED42B"/><path d="M56.504 21H36.371a2 2 0 00-1.866 1.28L21.658 55.59a2 2 0 00-.13.85l2.85 43.69a2 2 0 001.996 1.87h90.672a2 2 0 001.902-1.383l21.204-65.429a2 2 0 00-1.903-2.617H57.558a2 2 0 01-1.833-2.801l2.61-5.968A2 2 0 0056.505 21z" stroke="#000" stroke-width="2.5" stroke-linecap="round" stroke-linejoin="round"/><path d="M56.504 21H36.371a2 2 0 00-1.866 1.28L21.658 55.59a2 2 0 00-.13.85l2.85 43.69a2 2 0 001.996 1.87h90.672a2 2 0 001.902-1.383l21.204-65.429a2 2 0 00-1.903-2.617H57.558a2 2 0 01-1.833-2.801l2.61-5.968A2 2 0 0056.505 21z" stroke="#000" stroke-opacity=".2" stroke-width="2.5" stroke-linecap="round" stroke-linejoin="round"/><rect opacity=".3" width="54.326" height="53.508" rx="26.754" transform="scale(-1 1) rotate(50.098 -46.4 -99.285)" fill="#79CEE8" stroke="#000" stroke-width="3.252" stroke-linecap="round" stroke-linejoin="round"/><path d="M118.285 54.03l3.109-6.745 18.714 8.626-3.109 6.745-18.714-8.626zm-.226-.104s0 0 0 0h0z" fill="#4F5876" stroke="#000" stroke-width="1.938"/><path d="M158.827 73.96l15.221 3.09a4.907 4.907 0 003.08-.377l6.986-3.317c2.052-.974 4.672-.565 6.187 1.128 1.786 1.995 2.663 4.25-2.351 7.214-9.327 5.514-16.374 7.774-27.421 2.856-4.131-1.84-15.388-1.534-17.304-4.425-1.916-2.891-.542-5.715 4.753-7.143 2.396-.647 8.297.557 10.849.974z" fill="#FED5BD"/><path d="M158.827 73.96l15.221 3.09a4.907 4.907 0 003.08-.377l6.986-3.317c2.052-.974 4.672-.565 6.187 1.128 1.786 1.995 2.663 4.25-2.351 7.214-9.327 5.514-16.374 7.774-27.421 2.856-4.131-1.84-15.388-1.534-17.304-4.425-1.916-2.891-.542-5.715 4.753-7.143 2.396-.647 8.297.557 10.849.974z" stroke="#000" stroke-width="2.737" stroke-linecap="round" stroke-linejoin="round"/><path d="M158.827 73.96l15.221 3.09a4.907 4.907 0 003.08-.377l6.986-3.317c2.052-.974 4.672-.565 6.187 1.128 1.786 1.995 2.663 4.25-2.351 7.214-9.327 5.514-16.374 7.774-27.421 2.856-4.131-1.84-15.388-1.534-17.304-4.425-1.916-2.891-.542-5.715 4.753-7.143 2.396-.647 8.297.557 10.849.974z" stroke="#000" stroke-opacity=".2" stroke-width="2.737" stroke-linecap="round" stroke-linejoin="round"/><rect x=".6" y="1.627" width="14.866" height="60.127" rx="1.508" transform="scale(-1 1) rotate(65.253 -101.34 -78.388)" fill="#4F5876" stroke="#000" stroke-width="2.452"/><path fill-rule="evenodd" clip-rule="evenodd" d="M75.217 19.785c10.06-12.031 27.969-13.629 40-3.568 12.031 10.06 13.629 27.969 3.568 40-10.06 12.03-27.969 13.628-40 3.568-12.03-10.06-13.628-27.969-3.568-40zm4.293 2.811c8.125-9.718 22.59-11.008 32.308-2.882 9.717 8.126 11.008 22.59 2.882 32.308l-.795.951c-8.126 9.718-22.591 11.008-32.309 2.882-9.717-8.125-11.008-22.59-2.882-32.308l.796-.951z" fill="#FDF3E8"/><path d="M115.217 16.217l-.802.959.802-.96zm-40 3.568l-.959-.802.959.802zm43.568 36.432l-.959-.802.959.802zm-6.967-36.503l-.802.959.802-.96zM79.51 22.596l.959.802-.96-.802zm35.19 29.426l.959.802-.959-.802zm-.795.951l-.959-.801.959.801zm-32.309 2.882l.802-.958-.802.958zm-2.882-32.308l-.959-.802.96.802zm35.701-6.371c-11.501-9.618-28.622-8.09-38.24 3.41l-1.917-1.603c10.503-12.56 29.2-14.228 41.761-3.725l-1.604 1.918zm3.411 38.239c9.618-11.502 8.091-28.622-3.411-38.24l1.604-1.917c12.561 10.503 14.228 29.2 3.725 41.76l-1.918-1.603zm-38.239 3.411c11.502 9.617 28.622 8.09 38.239-3.411l1.918 1.604c-10.503 12.56-29.2 14.228-41.76 3.725l1.603-1.918zm-3.411-38.24c-9.618 11.502-8.09 28.623 3.411 38.24l-1.604 1.918c-12.56-10.503-14.228-29.2-3.725-41.76l1.918 1.603zm34.84.087c-9.188-7.683-22.865-6.463-30.547 2.725l-1.918-1.604c8.568-10.247 23.822-11.608 34.069-3.039l-1.604 1.918zm2.725 30.547c7.683-9.188 6.463-22.864-2.725-30.547l1.604-1.918c10.247 8.569 11.608 23.822 3.039 34.07l-1.918-1.605zm-.795.952l.795-.952 1.918 1.604-.795.951-1.918-1.603zm-30.548 2.725c9.188 7.683 22.865 6.462 30.548-2.725l1.918 1.603c-8.569 10.247-23.822 11.608-34.07 3.04l1.604-1.918zm-2.725-30.548c-7.683 9.188-6.463 22.865 2.725 30.548l-1.603 1.917c-10.248-8.568-11.608-23.822-3.04-34.069l1.918 1.604zm.796-.951l-.796.951-1.918-1.604.796-.95 1.918 1.603z" fill="#000"/><path d="M178.979 85.66l2.022 15.842h24l-7.92-28.908a16.908 16.908 0 00-9.229-10.888l-24.839-11.451a8.619 8.619 0 00-2.214-.677c-2.705-.445-9.589-1.615-14.301-2.742-5.977-1.43-13.469-7.328-13.887-4.37-.822 5.813 6.117 8.338 9.18 9.71l13.377 6.032-6.811 10.78c-3.405 5.389 6.989 10.515 6.989 10.515 3.153 4.137 8.857 2.682 7.141.098-1.373-2.067.87-5.934 2.162-7.61l4.332-1.173 4.411 9.907a8.452 8.452 0 003.982 4.143l1.605.792z" fill="#FED5BD"/><path d="M168.981 70.818l4.411 9.907a8.452 8.452 0 003.982 4.143l1.605.792 2.022 15.842h24l-7.92-28.908a16.908 16.908 0 00-9.229-10.888l-24.839-11.451a8.619 8.619 0 00-2.214-.677c-2.705-.445-9.589-1.615-14.301-2.742-5.977-1.43-13.469-7.328-13.887-4.37-.822 5.813 6.117 8.338 9.18 9.71l13.377 6.032m13.813 12.61l-4.332 1.174c-1.293 1.675-3.535 5.542-2.162 7.61 1.716 2.583-3.988 4.038-7.141-.1m13.635-8.684l1.264 2.758m-1.264-2.758l6.601-1.787m-20.414-10.823l-6.811 10.78c-3.405 5.389 6.989 10.515 6.989 10.515m-.178-21.295l3.74-4.145m-3.976 16.405l9.906-10.04m-9.492 19.075c-2.523-3.31-2.486-5.425-2.486-5.425l2.486 5.425z" stroke="#000" stroke-width="2.452" stroke-linecap="round" stroke-linejoin="round"/><path d="M169.001 102h51" stroke="#000" stroke-width="2.5" stroke-linecap="round" stroke-linejoin="round"/><path d="M118.811 95.421l-15.97-48A5 5 0 0098.097 44H6.933c-3.412 0-5.821 3.341-4.744 6.578l15.97 48A5 5 0 0022.903 102h91.164c3.412 0 5.821-3.341 4.744-6.579z" fill="#FED42B"/><path d="M118.811 95.421l-15.97-48A5 5 0 0098.097 44H6.933c-3.412 0-5.821 3.341-4.744 6.578l15.97 48A5 5 0 0022.903 102h91.164c3.412 0 5.821-3.341 4.744-6.579z" stroke="#000" stroke-width="2.5" stroke-linecap="round" stroke-linejoin="round"/><path d="M118.811 95.421l-15.97-48A5 5 0 0098.097 44H6.933c-3.412 0-5.821 3.341-4.744 6.578l15.97 48A5 5 0 0022.903 102h91.164c3.412 0 5.821-3.341 4.744-6.579z" stroke="#000" stroke-opacity=".2" stroke-width="2.5" stroke-linecap="round" stroke-linejoin="round"/><mask id="a" style="mask-type:alpha" maskUnits="userSpaceOnUse" x="0" y="42" width="121" height="62"><path d="M118.811 95.421l-15.97-48A5 5 0 0098.097 44H6.933c-3.412 0-5.821 3.341-4.744 6.578l15.97 48A5 5 0 0022.903 102h91.164c3.412 0 5.821-3.341 4.744-6.579z" fill="#FED42B"/><path d="M118.811 95.421l-15.97-48A5 5 0 0098.097 44H6.933c-3.412 0-5.821 3.341-4.744 6.578l15.97 48A5 5 0 0022.903 102h91.164c3.412 0 5.821-3.341 4.744-6.579z" stroke="#000" stroke-width="2.5" stroke-linecap="round" stroke-linejoin="round"/><path d="M118.811 95.421l-15.97-48A5 5 0 0098.097 44H6.933c-3.412 0-5.821 3.341-4.744 6.578l15.97 48A5 5 0 0022.903 102h91.164c3.412 0 5.821-3.341 4.744-6.579z" stroke="#000" stroke-opacity=".2" stroke-width="2.5" stroke-linecap="round" stroke-linejoin="round"/></mask><g mask="url(#a)"><path d="M41.758 33.076l-53.572 50.441 6.916 16.2 37.733-31.511-3.23 23.13 15.562 7.114L69.78 76.378c-3.107 5.727-9.56 18.9 2.377 27.708 18.422 13.592 47.27-17.814 62.422-33.715l-9.668-10.523C108.846 75.95 86.698 93.43 83.659 90.886c-3.038-2.543 7.445-22.075 14.875-32.614L82.478 45.606 49.494 73.292l4.593-29.473-12.329-10.743z" fill="#000"/></g></svg>